PathFileType	4	(X/Y/Z)	C:\Users\86182\Documents\cortex\Trimmed_M3_H13.trc
DataRate	CameraRate	NumFrames	NumMarkers	Units	OrigDataRate	OrigDataStartFrame	OrigNumFrames
100.00	100.00	       172	2	mm	100.00	1	       901
Frame#	Time	gripper			box			
		X1	Y1	Z1	X2	Y2	Z2	

1	0.000	268.34140	172.40889	192.36794	269.95270	169.49344	57.15947	
2	0.010	268.34189	172.40910	192.36844	269.95276	169.49338	57.15952	
3	0.020	268.34250	172.40935	192.36925	269.95248	169.49368	57.15929	
4	0.030	268.34314	172.40955	192.37022	269.95215	169.49402	57.15903	
5	0.040	268.34381	172.40974	192.37125	269.95203	169.49416	57.15893	
6	0.050	268.34433	172.40996	192.37198	269.95218	169.49400	57.15905	
7	0.060	268.34464	172.41016	192.37212	269.95248	169.49370	57.15929	
8	0.070	268.34467	172.41029	192.37167	269.95270	169.49347	57.15947	
9	0.080	268.34460	172.41042	192.37111	269.95267	169.49350	57.15944	
10	0.090	268.34451	172.41048	192.37076	269.95227	169.49393	57.15911	
11	0.100	268.34436	172.41043	192.37053	269.95154	169.49467	57.15852	
12	0.110	268.34393	172.41017	192.37007	269.95071	169.49554	57.15784	
13	0.120	268.34305	172.40964	192.36911	269.95007	169.49623	57.15731	
14	0.130	268.34189	172.40887	192.36775	269.94977	169.49654	57.15707	
15	0.140	268.34070	172.40810	192.36639	269.94980	169.49651	57.15709	
16	0.150	268.33978	172.40749	192.36542	269.94995	169.49634	57.15723	
17	0.160	268.33926	172.40715	192.36511	269.95016	169.49614	57.15739	
18	0.170	268.33920	172.40704	192.36560	269.95035	169.49593	57.15755	
19	0.180	268.33951	172.40712	192.36673	269.95050	169.49577	57.15767	
20	0.190	268.34009	172.40730	192.36815	269.95044	169.49583	57.15762	
21	0.200	268.34076	172.40756	192.36942	269.95013	169.49617	57.15736	
22	0.210	268.34143	172.40784	192.37032	269.94968	169.49663	57.15699	
23	0.220	268.34201	172.40805	192.37093	269.94931	169.49701	57.15669	
24	0.230	268.34253	172.40823	192.37144	269.94916	169.49718	57.15656	
25	0.240	268.34302	172.40840	192.37193	269.94910	169.49724	57.15651	
26	0.250	268.34348	172.40862	192.37233	269.94897	169.49738	57.15640	
27	0.260	268.34384	172.40886	192.37254	269.94861	169.49774	57.15611	
28	0.270	268.34412	172.40916	192.37257	269.94800	169.49838	57.15561	
29	0.280	268.34439	172.40956	192.37260	269.94717	169.49925	57.15492	
30	0.290	268.34479	172.41002	192.37291	269.94623	169.50024	57.15415	
31	0.300	268.34528	172.41049	192.37352	269.94540	169.50110	57.15347	
32	0.310	268.34573	172.41086	192.37430	269.94495	169.50159	57.15309	
33	0.320	268.34607	172.41110	192.37514	269.94504	169.50148	57.15319	
34	0.330	268.34625	172.41119	192.37593	269.94574	169.50075	57.15376	
35	0.340	268.34619	172.41109	192.37646	269.94675	169.49971	57.15458	
36	0.350	268.34576	172.41077	192.37642	269.94769	169.49869	57.15537	
37	0.360	268.34500	172.41028	192.37560	269.94839	169.49797	57.15594	
38	0.370	268.34396	172.40970	192.37399	269.94864	169.49773	57.15614	
39	0.380	268.34274	172.40909	192.37177	269.94818	169.49818	57.15578	
40	0.390	268.34152	172.40855	192.36929	269.94699	169.49944	57.15479	
41	0.400	268.34052	172.40819	192.36697	269.94513	169.50137	57.15327	
42	0.410	268.33997	172.40807	192.36520	269.94305	169.50357	57.15155	
43	0.420	268.33984	172.40819	192.36420	269.94125	169.50543	57.15008	
44	0.430	268.34009	172.40842	192.36394	269.94031	169.50641	57.14931	
45	0.440	268.34048	172.40862	192.36427	269.94046	169.50626	57.14943	
46	0.450	268.34094	172.40875	192.36507	269.94165	169.50504	57.15039	
47	0.460	268.34134	172.40881	192.36618	269.94348	169.50308	57.15191	
48	0.470	268.34171	172.40881	192.36739	269.94550	169.50101	57.15354	
49	0.480	268.34201	172.40883	192.36847	269.94711	169.49930	57.15488	
50	0.490	268.34229	172.40892	192.36935	269.94827	169.49811	57.15582	
51	0.500	268.34268	172.40916	192.37006	269.94907	169.49725	57.15649	
52	0.510	268.34317	172.40952	192.37059	269.94977	169.49652	57.15707	
53	0.520	268.34366	172.40988	192.37097	269.95041	169.49585	57.15759	
54	0.530	268.34406	172.41016	192.37120	269.95093	169.49535	57.15800	
55	0.540	268.34424	172.41025	192.37123	269.95111	169.49512	57.15817	
56	0.550	268.34415	172.41013	192.37088	269.95102	169.49522	57.15809	
57	0.560	268.34369	172.40977	192.37009	269.95074	169.49550	57.15787	
58	0.570	268.34299	172.40927	192.36897	269.95050	169.49576	57.15767	
59	0.580	268.34216	172.40877	192.36774	269.95044	169.49585	57.15760	
60	0.590	268.34137	172.40831	192.36656	269.95056	169.49571	57.15771	
61	0.600	268.34070	172.40794	192.36566	269.95090	169.49536	57.15798	
62	0.610	268.34033	172.40770	192.36528	269.95126	169.49495	57.15830	
63	0.620	268.34036	172.40759	192.36551	269.95148	169.49474	57.15847	
64	0.630	268.34070	172.40767	192.36624	269.95126	169.49496	57.15829	
65	0.640	268.34131	172.40794	192.36719	269.95056	169.49570	57.15771	
66	0.650	268.34201	172.40842	192.36807	269.94940	169.49692	57.15676	
67	0.660	268.34271	172.40897	192.36874	269.94791	169.49847	57.15553	
68	0.670	268.34326	172.40945	192.36920	269.94623	169.50023	57.15416	
69	0.680	268.34366	172.40984	192.36954	269.94467	169.50186	57.15288	
70	0.690	268.34390	172.41008	192.36987	269.94348	169.50311	57.15190	
71	0.700	268.34402	172.41020	192.37012	269.94272	169.50389	57.15129	
72	0.710	268.34396	172.41016	192.37018	269.94241	169.50424	57.15101	
73	0.720	268.34369	172.40996	192.36992	269.94254	169.50412	57.15111	
74	0.730	268.34332	172.40964	192.36948	269.94312	169.50348	57.15160	
75	0.740	268.34299	172.40933	192.36914	269.94403	169.50255	57.15234	
76	0.750	268.34283	172.40909	192.36909	269.94489	169.50163	57.15305	
77	0.760	268.34271	172.40887	192.36923	269.94550	169.50102	57.15354	
78	0.770	268.34256	172.40860	192.36938	269.94586	169.50063	57.15384	
79	0.780	268.34235	172.40828	192.36954	269.94632	169.50014	57.15422	
80	0.790	268.34204	172.40793	192.36955	269.94720	169.49922	57.15494	
81	0.800	268.34161	172.40765	192.36917	269.94849	169.49788	57.15600	
82	0.810	268.34113	172.40750	192.36821	269.94992	169.49637	57.15717	
83	0.820	268.34067	172.40753	192.36682	269.95117	169.49509	57.15819	
84	0.830	268.34036	172.40771	192.36545	269.95206	169.49414	57.15893	
85	0.840	268.34036	172.40805	192.36467	269.95258	169.49355	57.15939	
86	0.850	268.34070	172.40852	192.36484	269.95282	169.49327	57.15961	
87	0.860	268.34137	172.40909	192.36600	269.95267	169.49335	57.15956	
88	0.870	268.34225	172.40967	192.36800	269.95221	169.49377	57.15922	
89	0.880	268.34329	172.41020	192.37056	269.95145	169.49448	57.15867	
90	0.890	268.34436	172.41061	192.37320	269.95068	169.49522	57.15808	
91	0.900	268.34531	172.41086	192.37524	269.95010	169.49580	57.15763	
92	0.910	268.34601	172.41084	192.37610	269.94986	169.49617	57.15733	
93	0.920	268.34656	172.41060	192.37582	269.94983	169.49648	57.15709	
94	0.930	268.34708	172.41014	192.37480	269.94992	169.49690	57.15675	
95	0.940	268.34778	172.40956	192.37332	269.95007	169.49762	57.15620	
96	0.950	268.34863	172.40892	192.37149	269.95026	169.49869	57.15538	
97	0.960	268.34958	172.40831	192.36971	269.95050	169.50000	57.15438	
98	0.970	268.35059	172.40794	192.36879	269.95093	169.50125	57.15344	
99	0.980	268.35144	172.40811	192.36975	269.95151	169.50206	57.15286	
100	0.990	268.35144	172.40924	192.37347	269.95175	169.50220	57.15282	
101	1.000	268.34958	172.41180	192.38055	269.95078	169.50148	57.15344	
102	1.010	268.34448	172.41635	192.39149	269.94748	169.49965	57.15491	
103	1.020	268.33469	172.42325	192.40640	269.94080	169.49622	57.15759	
104	1.030	268.31909	172.43250	192.42517	269.92990	169.49036	57.16203	
105	1.040	268.29773	172.44360	192.44762	269.91498	169.48116	57.16893	
106	1.050	268.27243	172.45528	192.47295	269.89740	169.46777	57.17884	
107	1.060	268.24658	172.46561	192.49939	269.88031	169.45007	57.19182	
108	1.070	268.22394	172.47253	192.52522	269.86719	169.42874	57.20718	
109	1.080	268.20737	172.47432	192.55048	269.85986	169.40526	57.22353	
110	1.090	268.19794	172.46979	192.57774	269.85703	169.38177	57.23884	
111	1.100	268.19507	172.45847	192.61166	269.85440	169.36108	57.25045	
112	1.110	268.19696	172.44092	192.65770	269.84622	169.34604	57.25542	
113	1.120	268.20135	172.41878	192.72084	269.82623	169.33913	57.25094	
114	1.130	268.20615	172.39465	192.80505	269.78894	169.34233	57.23501	
115	1.140	268.20953	172.37148	192.91376	269.73083	169.35713	57.20710	
116	1.150	268.21017	172.35185	193.05051	269.65216	169.38454	57.16863	
117	1.160	268.20737	172.33763	193.21843	269.55804	169.42503	57.12311	
118	1.170	268.20172	172.32945	193.41895	269.45703	169.47929	57.07519	
119	1.180	268.19510	172.32651	193.65170	269.35770	169.54868	57.02957	
120	1.190	268.18961	172.32722	193.91541	269.26547	169.63483	56.99117	
121	1.200	268.18668	172.33049	194.20831	269.18262	169.73807	56.96635	
122	1.210	268.18713	172.33586	194.52782	269.10953	169.85568	56.96310	
123	1.220	268.19107	172.34314	194.87106	269.04584	169.98174	56.99041	
124	1.230	268.19809	172.35222	195.23599	268.98996	170.10855	57.05714	
125	1.240	268.20670	172.36307	195.62105	268.93826	170.22905	57.17089	
126	1.250	268.21445	172.37627	196.02354	268.88559	170.33894	57.33685	
127	1.260	268.21930	172.39313	196.43967	268.82809	170.43811	57.55685	
128	1.270	268.22101	172.41472	196.86639	268.76663	170.52934	57.82843	
129	1.280	268.22031	172.44035	197.30205	268.70786	170.61446	58.14454	
130	1.290	268.21753	172.46719	197.74500	268.66199	170.69164	58.49463	
131	1.300	268.21317	172.49179	198.19293	268.63895	170.75555	58.86613	
132	1.310	268.20905	172.51228	198.64337	268.64615	170.79974	59.24475	
133	1.320	268.20749	172.52936	199.09370	268.68951	170.81813	59.61431	
134	1.330	268.20929	172.54436	199.54077	268.77634	170.80437	59.95853	
135	1.340	268.21429	172.55673	199.98132	268.91681	170.75098	60.26440	
136	1.350	268.22302	172.56407	200.41371	269.11890	170.65285	60.52554	
137	1.360	268.23584	172.56532	200.83878	269.37677	170.51530	60.74648	
138	1.370	268.25165	172.56221	201.25926	269.65735	170.36143	60.94918	
139	1.380	268.26895	172.55682	201.67839	269.88782	170.23648	61.18070	
140	1.390	268.28815	172.54903	202.09802	269.97226	170.19589	61.50334	
141	1.400	268.31100	172.53751	202.51779	269.86453	170.26440	61.94910	
142	1.410	268.33847	172.52278	202.93684	269.61722	170.41100	62.48889	
143	1.420	268.36896	172.50812	203.35602	269.32822	170.58038	63.06537	
144	1.430	268.39923	172.49690	203.77698	269.06799	170.73352	63.63757	
145	1.440	268.42688	172.48979	204.20015	268.86746	170.85307	64.18630	
146	1.450	268.45169	172.48460	204.62488	268.73514	170.93330	64.70171	
147	1.460	268.47540	172.47888	205.05098	268.67126	170.97340	65.17748	
148	1.470	268.49878	172.47258	205.47906	268.67505	170.97421	65.61165	
149	1.480	268.51981	172.46791	205.91008	268.74606	170.93733	66.00593	
150	1.490	268.53503	172.46675	206.34483	268.88269	170.86540	66.36131	
151	1.500	268.54254	172.46898	206.78343	269.08154	170.76144	66.67532	
152	1.510	268.54254	172.47385	207.22488	269.33517	170.62990	66.94630	
153	1.520	268.53555	172.48207	207.66725	269.62177	170.48225	67.18466	
154	1.530	268.52136	172.49532	208.10768	269.89050	170.34563	67.42410	
155	1.540	268.50012	172.51379	208.54283	270.07080	170.25778	67.71346	
156	1.550	268.47433	172.53514	208.97084	270.13361	170.23334	68.07483	
157	1.560	268.44748	172.55583	209.39328	270.12985	170.24257	68.47675	
158	1.570	268.42145	172.57323	209.81381	270.13116	170.24475	68.87126	
159	1.580	268.39658	172.58621	210.23459	270.15109	170.23218	69.24709	
160	1.590	268.37289	172.59476	210.65480	270.14661	170.22908	69.63383	
161	1.600	268.34946	172.59882	211.07268	270.09259	170.25044	70.05561	
162	1.610	268.32471	172.59718	211.48785	270.02643	170.27711	70.49744	
163	1.620	268.29834	172.58768	211.90202	269.99329	170.28528	70.93344	
164	1.630	268.27286	172.56923	212.31836	269.97278	170.28622	71.37246	
165	1.640	268.25238	172.54376	212.73993	269.88809	170.32185	71.85793	
166	1.650	268.23981	172.51555	213.16757	269.69131	170.41852	72.41886	
167	1.660	268.23438	172.48842	213.59979	269.41919	170.55699	73.03394	
168	1.670	268.23312	172.46419	214.03516	269.14661	170.69786	73.65694	
169	1.680	268.23373	172.44370	214.47321	268.92059	170.81683	74.25502	
170	1.690	268.23523	172.42841	214.91318	268.75336	170.90793	74.81342	
171	1.700	268.23682	172.42030	215.35275	268.64258	170.97252	75.32684	
172	1.710	268.23715	172.41995	215.78873	268.58481	171.01173	75.79559	
